<svg xmlns="http://www.w3.org/2000/svg" width="14.54mm" height="15.39mm" viewBox="0 0 41.2 43.61"><defs><style>.cls-1{fill:#fff;fill-rule:evenodd;}</style></defs><g id="Layer_2" data-name="Layer 2"><g id="Layer_1-2" data-name="Layer 1"><path class="cls-1" d="M24.52,0h-2.3V2.74H20.34V0H17.78V2.74H13.41V5.61h.45A2.1,2.1,0,0,1,16,7.7v3.46H19.6V6.39h4.55a3.59,3.59,0,0,1,0,7.18H22.64v0H5.05a5,5,0,0,0-3.73,1.64,5.11,5.11,0,0,0-.94,1.55A5,5,0,0,0,0,18.53,4.89,4.89,0,0,0,1.6,22.12l.18.15L19.41,36.78a1.84,1.84,0,0,0,2.36,0L39.33,22.35l.16-.13a4.93,4.93,0,0,0,1.68-3.69,5.05,5.05,0,0,0-1.29-3.34,4.9,4.9,0,0,0-3.3-1.63H33.1q-.14.33-.3.66a9.68,9.68,0,0,1-2,2.74,4,4,0,0,1-.3.28h5.68a1.3,1.3,0,0,1,1,.42,1.36,1.36,0,0,1,.26.41,1.5,1.5,0,0,1,.08.47,1.3,1.3,0,0,1-.46,1l-.05.05L20.6,33,4.28,19.58a1.34,1.34,0,0,1-.56-1,1.26,1.26,0,0,1,.08-.47,1.36,1.36,0,0,1,.26-.41,1.27,1.27,0,0,1,1-.42H16v4.51a1.74,1.74,0,0,1-1.73,1.73h-.06v1.41h7.23V23.47h-.06a1.72,1.72,0,0,1-.8-.2l-.08,0-.06,0-.06-.05-.07,0L20.17,23l0,0-.08-.08L20,22.83l0-.07-.07-.09-.06-.11,0-.07,0-.08,0-.08,0-.08,0-.09,0-.09V22l0-.12V17.22h4.55a7.21,7.21,0,0,0,5-2A7.26,7.26,0,0,0,31.39,10,7.27,7.27,0,0,0,25,2.78l-.16,0V0ZM3.68,27.79v9.67a2.49,2.49,0,0,0,2.47,2.47h28.9a2.49,2.49,0,0,0,2.47-2.47V27.79l3.67-3h0v12.7a6.16,6.16,0,0,1-6.15,6.15H6.15A6.18,6.18,0,0,1,0,37.46V24.76l0,0Z"/></g></g></svg>